<svg version="1.1" id="Layer_1" xmlns="http://www.w3.org/2000/svg" xmlns:xlink="http://www.w3.org/1999/xlink" x="0px" y="0px"
	 viewBox="0 0 944.8 141.7" style="enable-background:new 0 0 944.8 141.7;" xml:space="preserve">
<style type="text/css">
	.svg-inline--ybs-1{fill:#009C41;}
	.svg-inline--ybs-0{fill:url(#svg_ID_inline__ybs_1);}
	.svg-inline--ybs-2{fill:#62C422;}
	.svg-inline--ybs-3{fill:url(#svg_ID_inline__ybs_2);}
	.svg-inline--ybs-4{fill:#969696;}
	.svg-inline--ybs-5{fill:url(#svg_ID_inline__ybs_3);}
	.svg-inline--ybs-6{fill:url(#svg_ID_inline__ybs_4);}
</style>
<g>
	<path class="svg-inline--ybs-1" d="M93.7,2.4c6.9-1.5,14.7-2.4,22.8-2.4c8.2,0,15.9,0.8,22.8,2.4c1.5,6.9,2.4,14.7,2.4,22.8
		c0,8.2-0.8,15.9-2.4,22.8l0,0c-6.9,1.5-14.7,2.4-22.8,2.4c-8.2,0-15.9-0.8-22.8-2.4c-1.5-6.9-2.4-14.7-2.4-22.8
		C91.3,17,92.2,9.3,93.7,2.4"/>
	<linearGradient id="svg_ID_inline__ybs_1" gradientUnits="userSpaceOnUse" x1="117.7202" y1="50.3864" x2="117.7202" y2="2.356">
		<stop  offset="0" style="stop-color:#005E27"/>
		<stop  offset="0.85" style="stop-color:#009C41"/>
	</linearGradient>
	<path class="svg-inline--ybs-0" d="M139.4,2.4c1.5,6.9,2.4,14.7,2.4,22.8c0,8.2-0.8,15.9-2.4,22.8l0,0c-6.9,1.5-14.7,2.4-22.8,2.4
		c-8.2,0-15.9-0.8-22.8-2.4L139.4,2.4z"/>
</g>
<g>
	<path class="svg-inline--ybs-2" d="M48,48c6.9-1.5,14.7-2.4,22.8-2.4c8.2,0,15.9,0.8,22.8,2.4c1.5,6.9,2.4,14.7,2.4,22.8c0,8.2-0.8,15.9-2.4,22.8
		l0,0c-6.9,1.5-14.7,2.4-22.8,2.4c-8.2,0-15.9-0.8-22.8-2.4c-1.5-6.9-2.4-14.7-2.4-22.8C45.7,62.7,46.5,55,48,48"/>
	<linearGradient id="svg_ID_inline__ybs_2" gradientUnits="userSpaceOnUse" x1="72.0456" y1="96.061" x2="72.0456" y2="48.0305">
		<stop  offset="0" style="stop-color:#498524"/>
		<stop  offset="0.85" style="stop-color:#62C422"/>
	</linearGradient>
	<path class="svg-inline--ybs-3" d="M93.7,48c1.5,6.9,2.4,14.7,2.4,22.8c0,8.2-0.8,15.9-2.4,22.8l0,0c-6.9,1.5-14.7,2.4-22.8,2.4
		c-8.2,0-15.9-0.8-22.8-2.4L93.7,48z"/>
</g>
<g>
	<path class="svg-inline--ybs-4" d="M2.4,93.7c6.9-1.5,14.7-2.4,22.8-2.4c8.2,0,15.9,0.8,22.8,2.4c1.5,6.9,2.4,14.7,2.4,22.8
		c0,8.2-0.8,15.9-2.4,22.8l0,0c-6.9,1.5-14.7,2.4-22.8,2.4c-8.2,0-15.9-0.8-22.8-2.4C0.8,132.4,0,124.7,0,116.5
		C0,108.4,0.8,100.6,2.4,93.7"/>
	<linearGradient id="svg_ID_inline__ybs_3" gradientUnits="userSpaceOnUse" x1="26.3711" y1="141.7355" x2="26.3711" y2="93.7051">
		<stop  offset="0" style="stop-color:#4D4D4D"/>
		<stop  offset="0.85" style="stop-color:#969696"/>
	</linearGradient>
	<path class="svg-inline--ybs-5" d="M48,93.7c1.5,6.9,2.4,14.7,2.4,22.8c0,8.2-0.8,15.9-2.4,22.8l0,0c-6.9,1.5-14.7,2.4-22.8,2.4
		c-8.2,0-15.9-0.8-22.8-2.4L48,93.7z"/>
</g>
<g>
	<path class="svg-inline--ybs-1" d="M48,2.4c1.5,6.9,2.4,14.7,2.4,22.8c0,8.2-0.8,15.9-2.4,22.8c-6.9,1.5-14.7,2.4-22.8,2.4
		C17,50.4,9.3,49.5,2.4,48l0,0C0.8,41.1,0,33.4,0,25.2C0,17,0.8,9.3,2.4,2.4C9.3,0.8,17,0,25.2,0C33.4,0,41.1,0.8,48,2.4"/>
	<linearGradient id="svg_ID_inline__ybs_4" gradientUnits="userSpaceOnUse" x1="24.0152" y1="50.3864" x2="24.0152" y2="2.356">
		<stop  offset="0" style="stop-color:#005E27"/>
		<stop  offset="0.85" style="stop-color:#009C41"/>
	</linearGradient>
	<path class="svg-inline--ybs-6" d="M48,48c-6.9,1.5-14.7,2.4-22.8,2.4C17,50.4,9.3,49.5,2.4,48l0,0C0.8,41.1,0,33.4,0,25.2C0,17,0.8,9.3,2.4,2.4
		L48,48z"/>
</g>
<g>
	<g>
		<path class="svg-inline--ybs-1" d="M207,60c-1.1,0.2-2.3,0.4-3.7,0.5c-1.4,0.1-2.8,0.2-4.1,0.2c-1.3,0-2.7-0.1-4.1-0.2c-1.4-0.1-2.7-0.3-3.7-0.5
			l9.2-18.1L179.8,4c1.2-0.2,2.5-0.4,4.1-0.5c1.6-0.1,3-0.2,4.4-0.2c1.4,0,2.9,0.1,4.5,0.2c1.6,0.1,2.9,0.3,4.1,0.5l10.8,23.3
			L218.4,4c1-0.2,2.3-0.4,3.7-0.5c1.5-0.1,2.8-0.2,4.1-0.2c1.2,0,2.6,0.1,4.1,0.2c1.5,0.1,2.7,0.3,3.7,0.5L207,60z"/>
		<path class="svg-inline--ybs-1" d="M262.5,61.3c-4.6,0-8.5-0.7-11.9-2.2c-3.4-1.4-6.2-3.5-8.5-6.1s-4-5.7-5.1-9.3c-1.2-3.6-1.7-7.5-1.7-11.8
			c0-4.3,0.6-8.3,1.7-11.9c1.2-3.6,2.9-6.7,5.1-9.3c2.3-2.6,5.1-4.6,8.5-6.1c3.4-1.4,7.4-2.2,11.9-2.2s8.5,0.7,11.9,2.2
			c3.4,1.4,6.2,3.5,8.5,6.1c2.3,2.6,4,5.7,5.1,9.3c1.2,3.6,1.7,7.5,1.7,11.9c0,4.3-0.6,8.2-1.7,11.8c-1.2,3.6-2.9,6.7-5.1,9.3
			c-2.3,2.6-5.1,4.6-8.5,6.1C271,60.6,267,61.3,262.5,61.3z M250.1,31.9c0,5.6,1,10,3.1,13.1c2.1,3.1,5.1,4.6,9.3,4.6
			c4.1,0,7.2-1.5,9.3-4.6c2.1-3.1,3.1-7.4,3.1-13.1c0-5.6-1-10-3.1-13c-2.1-3-5.1-4.6-9.3-4.6c-4.1,0-7.2,1.5-9.3,4.6
			C251.1,21.9,250.1,26.3,250.1,31.9z"/>
		<path class="svg-inline--ybs-1" d="M350.3,60c-1.3,0.2-2.7,0.4-4.3,0.5c-1.6,0.1-3,0.2-4.3,0.2c-1.3,0-2.7-0.1-4.3-0.2c-1.6-0.1-3-0.3-4.3-0.5
			l-14.7-24.8c4.1-1.4,7.3-3.2,9.4-5.4c2.2-2.1,3.3-4.7,3.3-7.9c0-5.8-4-8.7-11.9-8.7c-0.8,0-1.6,0-2.5,0.1
			c-0.9,0.1-1.8,0.2-2.9,0.3V60c-1.1,0.2-2.2,0.4-3.3,0.5c-1.1,0.1-2.4,0.2-3.8,0.2c-2.7,0-5.1-0.2-7.3-0.6V4
			c3.5-0.4,7-0.7,10.7-0.9c3.7-0.3,6.8-0.4,9.3-0.4c8.7,0,15.3,1.5,20,4.5c4.7,3,7,7.6,7,13.7c0,3.5-1,6.7-3,9.6
			c-2,3-4.9,5.4-8.6,7.3L350.3,60z"/>
		<path class="svg-inline--ybs-1" d="M358.5,4c2.2-0.4,4.6-0.6,7.4-0.6c2.7,0,5.2,0.2,7.4,0.6v56c-2.2,0.4-4.6,0.6-7.4,0.6c-2.7,0-5.2-0.2-7.4-0.6
			V4z M376.2,30.8l16-26.9c1.3-0.2,2.7-0.4,4.1-0.5c1.4-0.1,2.8-0.2,4.1-0.2c1.3,0,2.7,0.1,4.1,0.2c1.4,0.1,2.8,0.3,4.1,0.5
			l-17,25.7l19,30.3c-1.2,0.2-2.5,0.4-4,0.5c-1.5,0.1-3,0.2-4.4,0.2c-1.4,0-2.9-0.1-4.4-0.2c-1.5-0.1-2.9-0.3-4-0.5L376.2,30.8z"/>
		<path class="svg-inline--ybs-1" d="M428.6,35.8c-4-1.2-7.2-3.1-9.4-5.6c-2.2-2.5-3.4-5.8-3.4-9.8c0-2.7,0.5-5.1,1.6-7.3c1.1-2.2,2.6-4.1,4.7-5.6
			c2-1.6,4.4-2.7,7.2-3.6c2.8-0.8,5.9-1.2,9.4-1.2c1.4,0,2.8,0.1,4.4,0.2c1.6,0.1,3.1,0.3,4.6,0.5c1.5,0.2,2.9,0.5,4.3,0.8
			c1.3,0.3,2.5,0.7,3.5,1c-0.3,2.1-0.7,4.2-1.3,6.4c-0.6,2.2-1.2,4-2,5.4c-2.1-0.8-4.5-1.5-7.2-2c-2.7-0.5-4.9-0.8-6.8-0.8
			c-2.4,0-4.3,0.4-5.7,1.2c-1.4,0.8-2.2,2.1-2.2,3.7c0,1.4,0.6,2.6,1.8,3.4c1.2,0.8,2.6,1.5,4.3,2l7.4,2.2c4.5,1.3,7.9,3.2,10.1,5.6
			c2.3,2.4,3.4,5.8,3.4,10.1c0,5.9-2.2,10.4-6.7,13.8c-4.4,3.3-10.5,5-18.3,5c-3.3,0-6.5-0.3-9.8-0.8c-3.3-0.5-5.9-1.1-7.9-1.8
			c0.3-2.2,0.7-4.4,1.4-6.6c0.6-2.2,1.2-4,1.9-5.3c0.9,0.4,1.9,0.7,3,1c1.1,0.3,2.3,0.6,3.6,0.9c1.3,0.3,2.6,0.5,4,0.7
			c1.3,0.2,2.6,0.3,3.8,0.3c2.9,0,5.3-0.5,7.3-1.4c2-0.9,2.9-2.3,2.9-4.3c0-1.7-0.7-3-2.1-3.9c-1.4-0.9-3.2-1.7-5.4-2.4L428.6,35.8z
			"/>
		<path class="svg-inline--ybs-1" d="M501.6,4c2.2-0.4,4.6-0.6,7.4-0.6c2.7,0,5.2,0.2,7.4,0.6v56c-2.2,0.4-4.6,0.6-7.4,0.6c-2.7,0-5.2-0.2-7.4-0.6
			V38.1c-2.8,0.7-6.2,1.1-10.3,1.1c-3.9,0-7.3-0.4-10.1-1.1V60c-2.2,0.4-4.6,0.6-7.4,0.6c-2.7,0-5.2-0.2-7.4-0.6V4
			c2.2-0.4,4.6-0.6,7.4-0.6c2.7,0,5.2,0.2,7.4,0.6v21.8c1.2,0.4,2.7,0.7,4.5,0.9c1.8,0.3,3.7,0.4,5.6,0.4c1.7,0,3.6-0.1,5.5-0.4
			c2-0.3,3.5-0.6,4.8-1V4z"/>
		<path class="svg-inline--ybs-1" d="M528.3,4c2.2-0.4,4.6-0.6,7.4-0.6c2.7,0,5.2,0.2,7.4,0.6v56c-2.2,0.4-4.6,0.6-7.4,0.6c-2.7,0-5.2-0.2-7.4-0.6
			V4z"/>
		<path class="svg-inline--ybs-1" d="M606.1,60c-1.3,0.2-2.7,0.4-4.3,0.5c-1.6,0.1-3,0.2-4.3,0.2c-1.3,0-2.7-0.1-4.3-0.2c-1.6-0.1-3-0.3-4.3-0.5
			L574,35.2c4.1-1.4,7.3-3.2,9.4-5.4c2.2-2.1,3.3-4.7,3.3-7.9c0-5.8-4-8.7-11.9-8.7c-0.8,0-1.6,0-2.5,0.1c-0.9,0.1-1.8,0.2-2.9,0.3
			V60c-1.1,0.2-2.2,0.4-3.3,0.5c-1.1,0.1-2.4,0.2-3.8,0.2c-2.7,0-5.1-0.2-7.3-0.6V4c3.5-0.4,7-0.7,10.7-0.9c3.7-0.3,6.8-0.4,9.3-0.4
			c8.7,0,15.3,1.5,20,4.5c4.7,3,7,7.6,7,13.7c0,3.5-1,6.7-3,9.6c-2,3-4.9,5.4-8.6,7.3L606.1,60z"/>
		<path class="svg-inline--ybs-1" d="M625.6,37.2c0,4.5,1,7.6,3,9.4c2,1.8,5.5,2.7,10.4,2.7c2.1,0,4.4-0.1,6.8-0.3c2.5-0.2,4.7-0.5,6.6-0.8
			c0.3,0.9,0.5,1.9,0.7,2.9c0.2,1,0.3,2,0.3,3c0,1.9-0.2,3.7-0.5,5.5c-4.5,1.1-9.4,1.6-14.7,1.6c-4.8,0-8.8-0.5-12.2-1.4
			c-3.4-0.9-6.2-2.4-8.3-4.4c-2.1-2-3.7-4.6-4.7-7.9c-1-3.2-1.5-7.2-1.5-11.9V4h40.4c0.4,1.7,0.7,3.7,0.7,6.1c0,2.5-0.2,4.5-0.7,6.1
			h-26.2v10.1h22c0.2,0.8,0.4,1.7,0.5,2.8c0.1,1,0.2,2,0.2,2.8c0,0.8-0.1,1.7-0.2,2.8c-0.1,1-0.3,2-0.5,2.8H625.6z"/>
		<path class="svg-inline--ybs-2" d="M185.6,81.8c1.5-0.2,3.2-0.4,4.9-0.5c1.8-0.1,3.6-0.3,5.4-0.4c1.8-0.1,3.6-0.2,5.3-0.3
			c1.7-0.1,3.2-0.1,4.5-0.1c8.3,0,14.7,1.2,19.2,3.6c4.5,2.4,6.7,6.1,6.7,11.2c0,1.5-0.3,2.9-0.8,4.2c-0.5,1.3-1.2,2.5-2,3.5
			c-0.8,1-1.7,2-2.7,2.8c-1,0.8-2.1,1.6-3.1,2.2c1.4,0.3,2.7,0.8,4.1,1.4c1.4,0.7,2.6,1.5,3.7,2.6c1.1,1.1,2,2.4,2.7,4
			c0.7,1.6,1,3.4,1,5.4c0,3.2-0.7,5.9-2.1,8.1c-1.4,2.2-3.3,4-5.7,5.4c-2.4,1.4-5.3,2.4-8.6,3.1c-3.3,0.7-6.9,1-10.7,1
			c-1.5,0-3.2,0-5.1-0.1c-1.9-0.1-3.8-0.2-5.8-0.3s-3.9-0.2-5.7-0.4c-1.9-0.1-3.6-0.3-5.1-0.5V81.8z M206.7,104.1
			c3.8,0,6.4-0.6,7.9-1.8c1.5-1.2,2.2-2.8,2.2-4.8c0-2.2-0.9-3.9-2.7-5c-1.8-1.1-4.2-1.7-7.4-1.7c-1.2,0-2.4,0-3.4,0.1
			c-1,0.1-2.2,0.2-3.4,0.3v12.9H206.7z M199.8,128.3c1.2,0.1,2.5,0.3,3.8,0.3c1.3,0.1,2.7,0.1,4.1,0.1c4.3,0,7.4-0.7,9.2-2.1
			c1.8-1.4,2.7-3.1,2.7-5.3c0-2.2-0.9-4-2.6-5.3c-1.7-1.3-4.8-2-9.3-2h-7.9V128.3z"/>
		<path class="svg-inline--ybs-2" d="M275.4,81.8c2.2-0.4,4.6-0.6,7.4-0.6c2.7,0,5.2,0.2,7.4,0.6v53.6c-2.7,1-5.9,1.9-9.7,2.6
			c-3.8,0.7-7.7,1.1-11.9,1.1c-4,0-7.7-0.5-10.9-1.4c-3.2-0.9-5.9-2.3-8.2-4.3c-2.2-2-4-4.5-5.1-7.6c-1.2-3.1-1.8-6.9-1.8-11.3V81.8
			c2.2-0.4,4.6-0.6,7.4-0.6c2.7,0,5.2,0.2,7.4,0.6v31.3c0,5,0.9,8.5,2.8,10.6c1.8,2.1,4.6,3.1,8.2,3.1c1.7,0,3-0.1,4.1-0.3
			c1.1-0.2,2.1-0.5,3-0.8V81.8z"/>
		<path class="svg-inline--ybs-2" d="M301.9,81.8c2.2-0.4,4.6-0.6,7.4-0.6c2.7,0,5.2,0.2,7.4,0.6v56c-2.2,0.4-4.6,0.6-7.4,0.6
			c-2.7,0-5.2-0.2-7.4-0.6V81.8z"/>
		<path class="svg-inline--ybs-2" d="M367.3,125.4c0.2,1,0.4,2.1,0.5,3.1c0.1,1.1,0.2,2.1,0.2,3c0,0.9-0.1,2-0.2,3c-0.1,1.1-0.3,2.1-0.5,3.1h-38.9
			v-56c2.2-0.4,4.6-0.6,7.4-0.6c2.7,0,5.2,0.2,7.4,0.6v43.7H367.3z"/>
		<path class="svg-inline--ybs-2" d="M374.9,81.8c1.3-0.2,2.8-0.4,4.4-0.5c1.7-0.1,3.4-0.3,5.1-0.4c1.7-0.1,3.4-0.2,5-0.3c1.6-0.1,3.1-0.1,4.4-0.1
			c5.5,0,10.2,0.7,14.1,2.2c3.9,1.4,7.2,3.5,9.7,6c2.5,2.6,4.4,5.6,5.6,9.2c1.2,3.6,1.8,7.5,1.8,11.9c0,4.3-0.6,8.3-1.8,11.9
			c-1.2,3.6-3.1,6.7-5.6,9.3c-2.5,2.6-5.8,4.6-9.7,6.1c-3.9,1.4-8.7,2.2-14.1,2.2c-1.3,0-2.8,0-4.4-0.1c-1.6-0.1-3.3-0.2-5-0.3
			c-1.7-0.1-3.4-0.2-5.1-0.4c-1.7-0.1-3.1-0.3-4.4-0.5V81.8z M389.6,126.5c1.2,0.1,2.2,0.3,3.1,0.3c0.9,0.1,2,0.1,3.3,0.1
			c4.6,0,8-1.4,10.5-4.1c2.4-2.7,3.6-7.1,3.6-13.1c0-6-1.2-10.3-3.6-13.1c-2.4-2.7-5.9-4.1-10.5-4.1c-1.2,0-2.3,0-3.3,0.1
			c-0.9,0.1-2,0.2-3.1,0.3V126.5z"/>
		<path class="svg-inline--ybs-2" d="M434.3,81.8c2.2-0.4,4.6-0.6,7.4-0.6c2.7,0,5.2,0.2,7.4,0.6v56c-2.2,0.4-4.6,0.6-7.4,0.6
			c-2.7,0-5.2-0.2-7.4-0.6V81.8z"/>
		<path class="svg-inline--ybs-2" d="M510.6,137.8c-2,0.4-4.2,0.6-6.7,0.6c-2.5,0-4.8-0.2-6.7-0.6c-1.5-3.3-3.2-6.6-5.1-10.1
			c-1.9-3.5-3.8-6.8-5.9-10.1c-2-3.3-4-6.3-6-9.1s-3.8-5.2-5.4-7.3v36.5c-2,0.4-4.3,0.6-7.2,0.6c-2.7,0-5-0.2-6.9-0.6v-56
			c0.8-0.2,1.8-0.4,2.9-0.5c1.2-0.1,2.4-0.2,3.7-0.2c1.3,0,2.5,0.1,3.7,0.2c1.2,0.1,2.1,0.3,2.9,0.5c2,2.3,4.1,4.8,6.2,7.5
			c2.1,2.7,4.2,5.5,6.2,8.3c2,2.9,3.9,5.7,5.6,8.5s3.2,5.4,4.4,7.8V81.8c2-0.4,4.3-0.6,6.9-0.6c2.8,0,5.2,0.2,7.2,0.6V137.8z"/>
		<path class="svg-inline--ybs-2" d="M554.7,109.3c0.9-0.2,2.1-0.4,3.4-0.5c1.3-0.1,2.5-0.2,3.5-0.2c1,0,2.2,0.1,3.5,0.2c1.3,0.1,2.5,0.3,3.4,0.5
			v27c-2.1,0.8-4.7,1.5-7.9,2c-3.1,0.5-6.9,0.8-11.2,0.8c-5,0-9.3-0.7-13-2.2c-3.7-1.4-6.8-3.5-9.2-6.1c-2.5-2.6-4.3-5.7-5.5-9.3
			c-1.2-3.6-1.8-7.5-1.8-11.8c0-4.3,0.6-8.3,1.8-11.9c1.2-3.6,3-6.7,5.5-9.3c2.5-2.6,5.5-4.6,9.2-6.1c3.7-1.4,8-2.2,13-2.2
			c3,0,5.8,0.2,8.5,0.7c2.7,0.5,5.3,1.2,7.9,2.2c-0.3,2.2-0.7,4.4-1.4,6.6c-0.6,2.2-1.2,4-1.9,5.3c-1.7-0.6-3.5-1.1-5.4-1.5
			c-1.9-0.4-4.1-0.6-6.7-0.6c-2.3,0-4.4,0.3-6.3,0.9c-1.9,0.6-3.6,1.5-4.9,2.9c-1.4,1.3-2.4,3.1-3.2,5.2c-0.8,2.1-1.1,4.8-1.1,7.9
			c0,3,0.4,5.6,1.1,7.8c0.7,2.2,1.8,3.9,3.1,5.3c1.4,1.3,3,2.3,4.9,2.9c1.9,0.6,4,0.9,6.3,0.9c0.9,0,1.7,0,2.5-0.1
			c0.8-0.1,1.4-0.2,1.8-0.3V109.3z"/>
		<path class="svg-inline--ybs-2" d="M614.5,113.6c-4-1.2-7.2-3.1-9.4-5.6c-2.2-2.5-3.4-5.8-3.4-9.8c0-2.7,0.5-5.1,1.6-7.3
			c1.1-2.2,2.6-4.1,4.7-5.6c2-1.6,4.4-2.7,7.2-3.6c2.8-0.8,5.9-1.2,9.4-1.2c1.4,0,2.8,0.1,4.4,0.2c1.6,0.1,3.1,0.3,4.6,0.5
			c1.5,0.2,2.9,0.5,4.3,0.8c1.3,0.3,2.5,0.7,3.5,1c-0.3,2.1-0.7,4.2-1.3,6.4c-0.6,2.2-1.2,4-2,5.4c-2.1-0.8-4.5-1.5-7.2-2
			c-2.7-0.5-4.9-0.8-6.8-0.8c-2.4,0-4.3,0.4-5.7,1.2c-1.4,0.8-2.2,2.1-2.2,3.7c0,1.4,0.6,2.6,1.8,3.4c1.2,0.8,2.6,1.5,4.3,2l7.4,2.2
			c4.5,1.3,7.9,3.2,10.1,5.6c2.3,2.4,3.4,5.8,3.4,10.1c0,5.9-2.2,10.4-6.7,13.8c-4.4,3.3-10.5,5-18.3,5c-3.3,0-6.5-0.3-9.8-0.8
			c-3.3-0.5-5.9-1.1-7.9-1.8c0.3-2.2,0.7-4.4,1.4-6.6c0.6-2.2,1.2-4,1.9-5.3c0.9,0.4,1.9,0.7,3,1c1.1,0.3,2.3,0.6,3.6,0.9
			c1.3,0.3,2.6,0.5,4,0.7c1.3,0.2,2.6,0.3,3.8,0.3c2.9,0,5.3-0.5,7.3-1.4c2-0.9,2.9-2.3,2.9-4.3c0-1.7-0.7-3-2.1-3.9
			c-1.4-0.9-3.2-1.7-5.4-2.4L614.5,113.6z"/>
		<path class="svg-inline--ybs-2" d="M677,139.1c-4.6,0-8.5-0.7-11.9-2.2c-3.4-1.4-6.2-3.5-8.5-6.1s-4-5.7-5.1-9.3c-1.2-3.6-1.7-7.5-1.7-11.8
			c0-4.3,0.6-8.3,1.7-11.9c1.2-3.6,2.9-6.7,5.1-9.3c2.3-2.6,5.1-4.6,8.5-6.1c3.4-1.4,7.4-2.2,11.9-2.2s8.5,0.7,11.9,2.2
			c3.4,1.4,6.2,3.5,8.5,6.1c2.3,2.6,4,5.7,5.1,9.3c1.2,3.6,1.7,7.5,1.7,11.9c0,4.3-0.6,8.2-1.7,11.8c-1.2,3.6-2.9,6.7-5.1,9.3
			c-2.3,2.6-5.1,4.6-8.5,6.1C685.5,138.3,681.6,139.1,677,139.1z M664.7,109.7c0,5.6,1,10,3.1,13.1s5.1,4.6,9.3,4.6
			c4.1,0,7.2-1.5,9.3-4.6s3.1-7.4,3.1-13.1c0-5.6-1-10-3.1-13s-5.1-4.6-9.3-4.6c-4.1,0-7.2,1.5-9.3,4.6S664.7,104.1,664.7,109.7z"/>
		<path class="svg-inline--ybs-2" d="M752.4,124.3c0.7,1.3,1.3,3.1,1.9,5.3c0.6,2.2,1.1,4.4,1.4,6.6c-2,0.8-4.3,1.5-6.8,2.1
			c-2.5,0.6-5.6,0.9-9.3,0.9c-4.7,0-8.8-0.7-12.4-2.2c-3.5-1.4-6.5-3.5-8.9-6.1s-4.2-5.7-5.4-9.3c-1.2-3.6-1.8-7.5-1.8-11.8
			c0-4.3,0.6-8.3,1.8-11.9c1.2-3.6,3-6.7,5.4-9.3c2.4-2.6,5.3-4.6,8.9-6.1c3.5-1.4,7.7-2.2,12.4-2.2c3.7,0,6.8,0.3,9.3,0.9
			c2.5,0.6,4.7,1.3,6.8,2.1c-0.3,2.2-0.7,4.4-1.4,6.6c-0.6,2.2-1.2,4-1.9,5.3c-1.7-0.6-3.4-1.1-5.2-1.5c-1.8-0.4-4-0.6-6.5-0.6
			c-2,0-3.9,0.3-5.7,0.9c-1.8,0.6-3.3,1.5-4.6,2.9c-1.3,1.3-2.3,3.1-3.1,5.2c-0.8,2.1-1.1,4.8-1.1,7.9c0,3.1,0.4,5.7,1.1,7.9
			c0.8,2.1,1.8,3.8,3.1,5.1c1.3,1.3,2.8,2.2,4.6,2.8c1.8,0.6,3.7,0.9,5.7,0.9c2.5,0,4.7-0.2,6.5-0.7
			C749,125.4,750.8,124.9,752.4,124.3z"/>
		<path class="svg-inline--ybs-2" d="M763.9,81.8c2.2-0.4,4.6-0.6,7.4-0.6c2.7,0,5.2,0.2,7.4,0.6v56c-2.2,0.4-4.6,0.6-7.4,0.6
			c-2.7,0-5.2-0.2-7.4-0.6V81.8z"/>
		<path class="svg-inline--ybs-2" d="M804.4,115c0,4.5,1,7.6,3,9.4c2,1.8,5.5,2.7,10.4,2.7c2.1,0,4.4-0.1,6.8-0.3c2.5-0.2,4.7-0.5,6.6-0.8
			c0.3,0.9,0.5,1.9,0.7,2.9c0.2,1,0.3,2,0.3,3c0,1.9-0.2,3.7-0.5,5.5c-4.5,1.1-9.4,1.6-14.7,1.6c-4.8,0-8.8-0.5-12.2-1.4
			c-3.4-0.9-6.2-2.4-8.3-4.4c-2.1-2-3.7-4.6-4.7-7.9c-1-3.2-1.5-7.2-1.5-11.9V81.8h40.4c0.4,1.7,0.7,3.7,0.7,6.1
			c0,2.5-0.2,4.5-0.7,6.1h-26.2V104h22c0.2,0.8,0.4,1.7,0.5,2.8c0.1,1,0.2,2,0.2,2.8c0,0.8-0.1,1.7-0.2,2.8c-0.1,1-0.3,2-0.5,2.8
			H804.4z"/>
		<path class="svg-inline--ybs-2" d="M838,81.8h47.9c0.2,1,0.4,2,0.5,3.1c0.1,1,0.2,2,0.2,3c0,0.9-0.1,1.9-0.2,3c-0.1,1-0.3,2.1-0.5,3.1h-16.6
			v43.9c-2.2,0.4-4.6,0.6-7.4,0.6c-2.7,0-5.2-0.2-7.4-0.6V93.9H838c-0.2-1-0.4-2-0.5-3.1c-0.1-1-0.2-2-0.2-3c0-0.9,0.1-1.9,0.2-3
			C837.6,83.8,837.8,82.8,838,81.8z"/>
		<path class="svg-inline--ybs-2" d="M917.8,137.8c-1.1,0.2-2.3,0.4-3.7,0.5c-1.4,0.1-2.8,0.2-4.1,0.2c-1.3,0-2.7-0.1-4.1-0.2
			c-1.4-0.1-2.7-0.3-3.7-0.5l9.2-18.1l-20.8-37.9c1.2-0.2,2.5-0.4,4.1-0.5c1.6-0.1,3-0.2,4.4-0.2c1.4,0,2.9,0.1,4.5,0.2
			c1.6,0.1,2.9,0.3,4.1,0.5l10.8,23.3l10.7-23.3c1-0.2,2.3-0.4,3.7-0.5c1.5-0.1,2.8-0.2,4.1-0.2c1.2,0,2.6,0.1,4.1,0.2
			c1.5,0.1,2.7,0.3,3.7,0.5L917.8,137.8z"/>
	</g>
</g>
</svg>
